<?xml version="1.0" encoding="UTF-8"?>
<svg width="477px" height="500px" viewBox="0 0 477 500" version="1.1" xmlns="http://www.w3.org/2000/svg" xmlns:xlink="http://www.w3.org/1999/xlink">
    <title>Blobs/Forms</title>
    <defs>
        <linearGradient x1="4.4942%" y1="103.891817%" x2="95.5058%" y2="-3.89181697%" id="linearGradient-1">
            <stop stop-color="#F87537" offset="0%"></stop>
            <stop stop-color="#FBA81F" offset="100%"></stop>
        </linearGradient>
    </defs>
    <g id="Blobs/Forms" stroke="none" stroke-width="1" fill="none" fill-rule="evenodd">
        <g id="blob-19" fill="url(#linearGradient-1)" fill-rule="nonzero">
            <path d="M386.562691,60.7864896 C424.03927,96.0085677 449.591482,140.320214 463.787156,187.472351 C478.550657,235.192586 481.389792,285.185213 470.033253,334.041644 C459.244541,382.329977 433.124501,430.050211 393.944441,459.591309 C354.764382,489.132407 301.388649,501.062466 249.148569,499.92627 C196.90849,499.358172 145.236238,485.723819 101.513562,457.318917 C57.2230604,429.482113 21.4499626,386.874761 7.25428886,338.01833 C-6.94138487,289.729997 1.00819242,235.192586 19.7464817,186.336155 C38.4847711,137.479724 68.0117724,94.3042736 108.327486,59.6502935 C148.075372,25.5644115 198.611971,0 248.580742,0 C298.549514,0.568098034 348.518285,26.1325095 386.562691,60.7864896 Z" id="Path"></path>
        </g>
    </g>
</svg>