<?xml version="1.0" encoding="UTF-8" standalone="no"?>
<!DOCTYPE svg PUBLIC "-//W3C//DTD SVG 1.1//EN" "http://www.w3.org/Graphics/SVG/1.1/DTD/svg11.dtd">
<svg width="100%" height="100%" viewBox="0 0 1575 1575" version="1.1" xmlns="http://www.w3.org/2000/svg" xmlns:xlink="http://www.w3.org/1999/xlink" xml:space="preserve" xmlns:serif="http://www.serif.com/" style="fill-rule:evenodd;clip-rule:evenodd;stroke-linejoin:round;stroke-miterlimit:2;">
    <g transform="matrix(0.05,0,0,0.05,0,0)">
        <rect id="Logo" x="0" y="0" width="31496.1" height="31496.1" style="fill:none;"/>
        <clipPath id="_clip1">
            <rect id="Logo1" serif:id="Logo" x="0" y="0" width="31496.1" height="31496.1"/>
        </clipPath>
        <g clip-path="url(#_clip1)">
            <g transform="matrix(62.9921,0,0,62.9921,-6.82121e-12,2.55795e-12)">
                <circle cx="250" cy="250" r="250" style="fill:rgb(17,28,40);"/>
            </g>
            <g transform="matrix(35.0671,0,0,35.0671,-2060.56,-1313.1)">
                <path d="M400.679,377.849C406.159,371.431 412.011,365.851 418.303,360.053C415.681,355.309 414.188,349.858 414.188,344.06C414.188,325.777 429.031,310.934 447.314,310.934C456.081,310.934 463.968,314.406 469.894,319.973C479.502,310.238 496.096,295.98 507.7,295.905C519.731,295.826 534.963,309.854 545.506,319.973C551.41,314.534 559.566,310.934 568.216,310.934C586.498,310.934 601.342,325.777 601.342,344.06C601.342,349.623 599.967,354.868 597.539,359.476C604.914,366.222 614.721,377.849 614.721,377.849C614.721,377.849 611.298,397.907 609.072,407.091C611.93,402.18 616.804,397.734 620.554,394.243C623.064,391.906 630.042,391.187 632.309,390.845C659.78,387.423 687.863,400.022 706.254,429.933C731.352,417.094 755.423,423.158 773.949,432.135C801.98,445.719 810.713,477.552 806.04,514.698C800.986,554.87 780.105,610.17 747.396,645.681C747.367,647.621 751.464,652.737 751.451,655.321C751.432,659.122 747.453,659.002 732.027,658.996C700.792,658.984 676.067,643.644 666.25,629.922C655.771,615.274 646.504,592.303 650.388,571.86C645.074,575.162 625.927,574.706 620.552,579.649C613.332,586.287 606.482,602.691 604.897,614.545C600.269,649.162 603.455,658.777 587.24,658.996L523.166,658.996C520.205,659.011 512.427,657.988 513.063,655.321C513.699,652.653 526.205,646.777 526.241,642.681C526.241,642.681 542.477,562.097 542.392,531.282C542.3,497.583 526.266,481.053 508.613,481.412C490.959,481.053 473.331,497.521 473.238,531.221C473.154,561.977 489.303,642.681 489.303,642.681C489.211,646.67 501.761,652.611 502.48,655.321C503.199,658.03 494.749,659.006 492.433,658.996L428.361,658.996C412.146,658.777 421.221,641.121 406.375,609.51C393.057,581.155 376.522,570.698 371.208,567.396C372.286,573.16 374.066,595.285 371.168,605.722C368.208,616.383 360.752,620.144 354.995,625.398C353.032,625.985 350.971,626.026 348.744,624.929C332.961,617.156 312.933,590.715 289.057,567.571C289.057,567.571 321.731,617.975 331.559,645.155C331.577,645.205 330.583,645.847 330.189,646.081C317.549,653.595 303.771,658.172 288.158,658.877C281.009,659.2 263.954,659.075 263.95,655.321C263.943,650.555 268.056,647.774 268.004,645.681C256.507,634.694 233.993,593.467 218.866,555.946C212.819,540.946 208.667,530.558 208.48,514.944C208.318,501.478 208.911,494.221 210.944,488.714C216.702,473.123 224.883,461.804 226.773,462.527C227.607,462.846 247.893,493.32 254.433,495.984C257.194,474.349 252.831,457.176 248.881,437.362C247.657,431.22 251.877,427.804 256.819,425.755C272.066,420.424 290.049,420.164 309.146,429.933C327.753,399.671 358.15,387.128 385.884,390.973C392.473,392.332 398.708,395.258 403.418,400.834C404.58,402.707 405.754,404.84 406.328,407.091C405.175,399.211 402.355,387.214 400.679,377.849ZM746.146,493.685C756.801,497.273 758.413,521.088 749.743,546.833C741.073,572.578 725.383,590.567 714.728,586.979C704.073,583.391 702.462,559.576 711.132,533.831C719.802,508.085 735.491,490.097 746.146,493.685ZM395.457,525.742C406.261,527.499 422.713,549.597 427.022,559.175L418.754,534.45L415.661,517.747C415.971,517.261 423.3,510.94 424.302,501.95C422.046,509.668 408.506,519.909 395.457,525.742ZM312.433,450.516C312.366,479.993 306.75,506.075 306.192,520.758C315.347,525.989 325.696,540.168 328.744,545.19C329.153,545.864 329.249,545.979 329.447,546.213C327.756,546.894 310.49,460.1 312.433,450.516ZM638.899,453.703C646.09,453.136 651.239,456.33 657.601,459.509C673.435,467.418 675.791,487.108 668.364,497.518C652.731,519.429 624.002,507.136 623.98,507.099C626.366,489.387 631.329,469.767 638.899,453.703ZM358.723,487.415C369.688,492.072 404.32,466.1 388.927,448.702C376.571,434.736 354.371,451.954 354.359,451.98L358.723,487.415ZM476.63,417.105C473.156,416.041 473.008,412.577 473.008,410.224C473.008,390.168 488.553,373.884 507.7,373.884C526.847,373.884 542.392,390.168 542.392,410.224C542.392,412.577 542.166,416.09 538.77,417.105C532.933,418.85 520.444,421.747 507.7,421.747C494.956,421.747 482.456,418.889 476.63,417.105Z" style="fill:rgb(244,173,42);"/>
            </g>
        </g>
    </g>
</svg>
