<?xml version="1.0" encoding="UTF-8"?>
<svg width="492px" height="500px" viewBox="0 0 492 500" version="1.1" xmlns="http://www.w3.org/2000/svg" xmlns:xlink="http://www.w3.org/1999/xlink">
    <title>Blobs/Répertoire</title>
    <defs>
        <linearGradient x1="-2.16840434e-15%" y1="0.397612736%" x2="100%" y2="99.6023873%" id="linearGradient-1">
            <stop stop-color="#0090AC" offset="0%"></stop>
            <stop stop-color="#0A1B29" offset="100%"></stop>
        </linearGradient>
    </defs>
    <g id="Blobs/Répertoire" stroke="none" stroke-width="1" fill="none" fill-rule="evenodd">
        <g id="blob-18" fill="url(#linearGradient-1)">
            <path d="M417.237828,39.8630794 C463.683941,72.7465634 497.873441,126.262822 501.743951,180.423854 C504.969375,234.584886 477.230724,288.745919 446.266649,340.327854 C415.947658,392.554564 381.758158,441.557403 331.441535,471.217016 C281.124913,500.231855 214.036082,509.258694 157.268611,489.270694 C100.501139,469.927468 53.4099407,420.924629 26.3163746,364.829274 C-0.777191445,308.733919 -7.22804051,245.546048 8.25399725,192.02979 C24.3811199,138.513531 63.0862143,94.0241118 107.597073,61.1406278 C152.107931,28.2571439 202.424554,6.33482122 257.256771,1.17662766 C311.443903,-3.9815659 370.791715,7.62436961 417.237828,39.8630794 Z" id="Path"></path>
        </g>
    </g>
</svg>