<?xml version="1.0" encoding="UTF-8"?>
<svg width="24px" height="24px" viewBox="0 0 24 24" version="1.1" xmlns="http://www.w3.org/2000/svg" xmlns:xlink="http://www.w3.org/1999/xlink">
    <title>Social/Instagram</title>
    <g id="Social/Instagram" stroke="none" stroke-width="1" fill="none" fill-rule="evenodd">
        <path d="M12,0 C8.7408,0 8.33223529,0.0138352941 7.05232941,0.0722823529 C5.77524706,0.130447059 4.90277647,0.333176471 4.13957647,0.629929412 C3.3504,0.936564706 2.68122353,1.34682353 2.01402353,2.01402353 C1.34682353,2.68122353 0.936564706,3.3504 0.629929412,4.13957647 C0.333458824,4.90277647 0.130447059,5.77496471 0.0722823529,7.05232941 C0.0138352941,8.33251765 0,8.7408 0,12 C0,15.2589176 0.0138352941,15.6677647 0.0722823529,16.9476706 C0.130447059,18.2247529 0.333458824,19.0972235 0.629929412,19.8604235 C0.936564706,20.6496 1.34682353,21.3187765 2.01402353,21.9856941 C2.68122353,22.6528941 3.3504,23.0631529 4.13957647,23.3700706 C4.90277647,23.6665412 5.77524706,23.8695529 7.05232941,23.9277176 C8.33223529,23.9861647 8.7408,24 12,24 C15.2589176,24 15.6674824,23.9861647 16.9473882,23.9277176 C18.2247529,23.8695529 19.0972235,23.6665412 19.8604235,23.3700706 C20.6496,23.0631529 21.3187765,22.6528941 21.9859765,21.9856941 C22.6528941,21.3187765 23.0634353,20.6496 23.3700706,19.8604235 C23.6665412,19.0972235 23.8695529,18.2247529 23.9277176,16.9476706 C23.9861647,15.6677647 24,15.2589176 24,12 C24,8.74108235 23.9861647,8.33251765 23.9277176,7.05232941 C23.8695529,5.77496471 23.6665412,4.90277647 23.3700706,4.13957647 C23.0634353,3.3504 22.6528941,2.68122353 21.9859765,2.01402353 C21.3187765,1.34682353 20.6496,0.936564706 19.8604235,0.629929412 C19.0972235,0.333176471 18.2247529,0.130447059 16.9473882,0.0722823529 C15.6674824,0.0138352941 15.2589176,0 12,0 Z M12,2.16225882 C15.2041412,2.16225882 15.5836235,2.1744 16.8491294,2.232 C18.0189176,2.28564706 18.6542118,2.48103529 19.0771765,2.64536471 C19.6373647,2.86305882 20.0371765,3.12310588 20.4570353,3.54296471 C20.8768941,3.96282353 21.1369412,4.36263529 21.3546353,4.92254118 C21.5189647,5.34550588 21.7143529,5.9808 21.768,7.15087059 C21.8256,8.41637647 21.8377412,8.79585882 21.8377412,12 C21.8377412,15.2041412 21.8256,15.5836235 21.768,16.8491294 C21.7143529,18.0189176 21.5189647,18.6544941 21.3546353,19.0771765 C21.1369412,19.6373647 20.8768941,20.0371765 20.4570353,20.4570353 C20.0371765,20.8768941 19.6373647,21.1369412 19.0771765,21.3546353 C18.6542118,21.5189647 18.0189176,21.7146353 16.8491294,21.7677176 C15.5836235,21.8256 15.2044235,21.8377412 12,21.8377412 C8.79557647,21.8377412 8.41609412,21.8256 7.15087059,21.7677176 C5.98108235,21.7146353 5.34550588,21.5189647 4.92282353,21.3546353 C4.36263529,21.1369412 3.96282353,20.8768941 3.54296471,20.4570353 C3.12310588,20.0371765 2.86305882,19.6373647 2.64536471,19.0771765 C2.48103529,18.6544941 2.28564706,18.0189176 2.232,16.8491294 C2.1744,15.5836235 2.16225882,15.2041412 2.16225882,12 C2.16225882,8.79585882 2.1744,8.41637647 2.232,7.15087059 C2.28564706,5.9808 2.48103529,5.34550588 2.64536471,4.92254118 C2.86305882,4.36263529 3.12282353,3.96282353 3.54296471,3.54296471 C3.96282353,3.12310588 4.36263529,2.86305882 4.92282353,2.64536471 C5.34550588,2.48103529 5.98108235,2.28564706 7.15087059,2.232 C8.41637647,2.1744 8.79585882,2.16225882 12,2.16225882 Z" id="Shape" fill="#F5F1E3"></path>
        <path d="M12,15.8948864 C9.84897361,15.8948864 8.10511364,14.1510264 8.10511364,12 C8.10511364,9.84897361 9.84897361,8.10511364 12,8.10511364 C14.1510264,8.10511364 15.8948864,9.84897361 15.8948864,12 C15.8948864,14.1510264 14.1510264,15.8948864 12,15.8948864 Z M12,6 C8.68630865,6 6,8.68630865 6,12 C6,15.3136913 8.68630865,18 12,18 C15.3136913,18 18,15.3136913 18,12 C18,8.68630865 15.3136913,6 12,6 Z" id="Shape" fill="#F5F1E3"></path>
    </g>
</svg>