<?xml version="1.0" encoding="UTF-8"?>
<svg width="24px" height="24px" viewBox="0 0 24 24" version="1.1" xmlns="http://www.w3.org/2000/svg" xmlns:xlink="http://www.w3.org/1999/xlink">
    <title>Social/Soundcloud</title>
    <g id="Social/Soundcloud" stroke="none" stroke-width="1" fill="none" fill-rule="evenodd">
        <path d="M12.6492973,6.97657321 C12.4276757,7.05071651 12.3539459,7.1270405 12.3539459,7.3494704 L12.3539459,16.8092835 C12.3539459,16.9575701 12.5014054,17.1058567 12.6492973,17.18 L20.8462703,17.18 C22.4709189,17.18 23.8,15.8410592 23.8,14.2011838 C23.8,12.5634891 22.4709189,11.2223676 20.8462703,11.2223676 C20.476973,11.2223676 20.0337297,11.2965109 19.7385946,11.4469782 C19.5167568,8.7647352 17.3014054,6.68 14.5692973,6.68 L14.2,6.68 C13.683027,6.68 13.1660541,6.8282866 12.6492973,6.97657321 Z M11.4676757,7.6482243 L11.32,14.3494704 L11.4676757,16.8092835 C11.4676757,16.9575701 11.6153514,17.1058567 11.763027,17.1058567 C11.9107027,17.1058567 12.0583784,16.9575701 12.0583784,16.8092835 L12.2062703,14.3494704 L12.0583784,7.6482243 C12.0583784,7.49775701 11.9107027,7.3494704 11.763027,7.3494704 L11.6892973,7.3494704 C11.5416216,7.3494704 11.4676757,7.49775701 11.4676757,7.6482243 Z M10.4339459,8.1694081 L10.2860541,14.3494704 L10.4339459,16.8092835 C10.4339459,16.9575701 10.5816216,17.1058567 10.7292973,17.1058567 C10.876973,17.1058567 11.0246486,16.9575701 11.0246486,16.8092835 L11.1723243,14.3494704 L11.0246486,8.1694081 C11.0246486,8.01894081 10.876973,7.87065421 10.7292973,7.87065421 C10.5816216,7.87065421 10.4339459,8.01894081 10.4339459,8.1694081 Z M7.48,8.8388785 L7.33232432,14.3494704 L7.48,16.8834268 C7.48,17.0317134 7.55372973,17.1058567 7.70140541,17.1058567 C7.84908108,17.1058567 7.92302703,17.0317134 7.92302703,16.8834268 L8.0707027,14.3494704 L7.92302703,8.8388785 C7.92302703,8.6905919 7.77535135,8.6164486 7.70140541,8.6164486 C7.62767568,8.6164486 7.48,8.6905919 7.48,8.8388785 Z M8.44,8.98716511 L8.29232432,14.3494704 L8.44,16.8834268 C8.44,17.0317134 8.58767568,17.18 8.73535135,17.18 C8.88302703,17.18 9.0307027,17.0317134 9.0307027,16.8834268 L9.17837838,14.3494704 L9.0307027,8.98716511 C9.0307027,8.8388785 8.88302703,8.6905919 8.73535135,8.6905919 C8.58767568,8.6905919 8.44,8.8388785 8.44,8.98716511 Z M6.52,8.98716511 L6.37232432,14.3494704 L6.52,16.8834268 C6.52,17.0317134 6.59372973,17.1058567 6.74140541,17.1058567 C6.8892973,17.1058567 6.96302703,17.0317134 6.96302703,16.8834268 L7.1107027,14.3494704 L6.96302703,8.98716511 C6.96302703,8.8388785 6.8892973,8.7647352 6.74140541,8.7647352 C6.59372973,8.7647352 6.52,8.91302181 6.52,8.98716511 Z M9.47394595,9.2117757 L9.32627027,14.3494704 L9.47394595,16.8092835 C9.47394595,16.9575701 9.62162162,17.1058567 9.7692973,17.1058567 C9.91697297,17.1058567 10.0646486,16.9575701 10.0646486,16.8092835 L10.2123243,14.3494704 L10.0646486,9.1376324 C10.0646486,8.98716511 9.91697297,8.8388785 9.7692973,8.8388785 C9.54767568,8.91302181 9.47394595,8.98716511 9.47394595,9.2117757 Z M5.56,9.43420561 L5.41232432,14.3494704 L5.56,16.9575701 C5.56,17.1058567 5.63372973,17.18 5.78140541,17.18 C5.85535135,17.18 6.00302703,17.1058567 6.00302703,16.9575701 L6.22464865,14.3494704 L6.00302703,9.43420561 C6.00302703,9.285919 5.9292973,9.2117757 5.78140541,9.2117757 C5.63372973,9.2117757 5.56,9.285919 5.56,9.43420561 Z M4.6,10.3282866 L4.37837838,14.3494704 L4.6,16.9575701 C4.6,17.0317134 4.67372973,17.1058567 4.74767568,17.1058567 C4.89535135,17.1058567 4.9692973,17.0317134 4.9692973,16.9575701 L5.1907027,14.3494704 L4.9692973,10.3282866 C4.9692973,10.2541433 4.89535135,10.18 4.82162162,10.18 C4.67372973,10.18 4.6,10.2541433 4.6,10.3282866 Z M2.68,11.6694081 L2.45837838,14.3494704 L2.68,16.8834268 C2.68,16.9575701 2.75394595,17.0317134 2.82767568,17.0317134 C2.90162162,17.0317134 2.97535135,16.9575701 2.97535135,16.8834268 L3.19697297,14.3494704 L2.97535135,11.6694081 C2.97535135,11.5952648 2.90162162,11.5211215 2.82767568,11.5211215 C2.75394595,11.5211215 2.75394595,11.5952648 2.68,11.6694081 Z M1.79394595,11.7435514 L1.57232432,14.3494704 L1.79394595,16.8092835 C1.79394595,16.8834268 1.86767568,16.9575701 1.94162162,16.9575701 C1.94162162,16.9575701 2.01535135,16.8834268 2.01535135,16.8092835 L2.23697297,14.3494704 L2.01535135,11.7435514 C2.01535135,11.6694081 1.94162162,11.5952648 1.86767568,11.5952648 C1.86767568,11.6694081 1.79394595,11.6694081 1.79394595,11.7435514 Z M3.64,11.891838 L3.49232432,14.3494704 L3.64,16.9575701 C3.64,17.0317134 3.71394595,17.1058567 3.78767568,17.1058567 C3.86162162,17.1058567 3.93535135,17.0317134 3.93535135,16.9575701 L4.2307027,14.3494704 L4.0092973,11.891838 C4.0092973,11.8176947 3.93535135,11.7435514 3.86162162,11.7435514 C3.71394595,11.7435514 3.64,11.8176947 3.64,11.891838 Z M0.83372973,12.1905919 L0.612324324,14.3494704 L0.83372973,16.5105296 C0.83372973,16.5846729 0.907675676,16.5846729 0.907675676,16.5846729 C0.981405405,16.5846729 0.981405405,16.5105296 0.981405405,16.5105296 L1.27697297,14.3494704 L0.981405405,12.1905919 C0.981405405,12.1164486 0.907675676,12.1164486 0.907675676,12.1164486 L0.83372973,12.1905919 Z M-0.0523243243,13.0105296 L-0.2,14.3494704 L-0.0523243243,15.6905919 C-0.0523243243,15.7647352 0.0214054054,15.7647352 0.0214054054,15.7647352 C0.0953513514,15.7647352 0.0953513514,15.6905919 0.0953513514,15.6905919 L0.316972973,14.3494704 L0.0953513514,13.0105296 C0.0953513514,12.9363863 0.0214054054,12.9363863 0.0214054054,12.9363863 C0.0214054054,12.9363863 -0.0523243243,12.9363863 -0.0523243243,13.0105296 Z" id="Shape" fill="#F5F1E3"></path>
    </g>
</svg>