<?xml version="1.0" encoding="UTF-8"?>
<svg width="24px" height="24px" viewBox="0 0 24 24" version="1.1" xmlns="http://www.w3.org/2000/svg" xmlns:xlink="http://www.w3.org/1999/xlink">
    <title>Social/Youtube</title>
    <g id="Social/Youtube" stroke="none" stroke-width="1" fill="none" fill-rule="evenodd">
        <g id="Group" transform="translate(0.000000, 4.000000)" fill="#F5F1E3" fill-rule="nonzero">
            <g id="Youtube">
                <path d="M9.6,11.6571429 L9.6,4.66285714 L15.8352,8.16 L9.6,11.6571429 Z M23.4984,2.54851048 C23.2224,1.5454781 22.4093333,0.755382857 21.3765333,0.487268571 C19.5050667,0 12,0 12,0 C12,0 4.49493333,0 2.6232,0.487268571 C1.59066667,0.755382857 0.777333333,1.5454781 0.5016,2.54851048 C0,4.36650667 0,8.16 0,8.16 C0,8.16 0,11.9534933 0.5016,13.7714895 C0.777333333,14.774781 1.59066667,15.5646171 2.6232,15.8327314 C4.49493333,16.32 12,16.32 12,16.32 C12,16.32 19.5050667,16.32 21.3765333,15.8327314 C22.4093333,15.5646171 23.2224,14.774781 23.4984,13.7714895 C24,11.9534933 24,8.16 24,8.16 C24,8.16 24,4.36650667 23.4984,2.54851048 Z" id="Shape"></path>
            </g>
        </g>
    </g>
</svg>