<?xml version="1.0" encoding="UTF-8"?>
<svg width="492px" height="500px" viewBox="0 0 492 500" version="1.1" xmlns="http://www.w3.org/2000/svg" xmlns:xlink="http://www.w3.org/1999/xlink">
    <title>Blobs/Média 2</title>
    <defs>
        <linearGradient x1="3.76786396%" y1="2.79724161e-15%" x2="98.4128%" y2="100%" id="linearGradient-1">
            <stop stop-color="#FF5875" offset="0%"></stop>
            <stop stop-color="#0A1B29" offset="100%"></stop>
        </linearGradient>
    </defs>
    <g id="Blobs/Média-2" stroke="none" stroke-width="1" fill="none" fill-rule="evenodd">
        <g id="blob-17" fill="url(#linearGradient-1)">
            <path d="M353.666894,90.3686833 C401.782862,125.045263 457.597385,156.511049 480.051503,205.957283 C502.505622,254.761359 492.240882,321.545883 458.238931,369.065641 C424.236981,416.585399 366.497819,444.84039 306.192473,468.600269 C245.24558,492.360148 181.732503,511.624914 134.899627,491.717989 C87.4252057,471.811063 57.2725325,412.732445 34.8184142,356.864622 C12.3642959,301.638958 -1.74972135,248.981929 0.174917361,193.114106 C1.45800984,136.604123 19.4213045,76.2411878 59.1971712,40.28029 C98.973038,4.31939228 161.844569,-7.88162661 213.168268,4.96155117 C265.133514,17.8047289 305.550927,55.6921034 353.666894,90.3686833 Z" id="Path"></path>
        </g>
    </g>
</svg>