<?xml version="1.0" encoding="UTF-8"?>
<svg width="526px" height="500px" viewBox="0 0 526 500" version="1.1" xmlns="http://www.w3.org/2000/svg" xmlns:xlink="http://www.w3.org/1999/xlink">
    <title>Blobs/Média 1</title>
    <defs>
        <linearGradient x1="-2.16840434e-15%" y1="4.82080123%" x2="100%" y2="95.1791988%" id="linearGradient-1">
            <stop stop-color="#0090AC" offset="0%"></stop>
            <stop stop-color="#0A1B29" offset="100%"></stop>
        </linearGradient>
    </defs>
    <g id="Blobs/Média-1" stroke="none" stroke-width="1" fill="none" fill-rule="evenodd">
        <g id="blob-16" fill="url(#linearGradient-1)">
            <path d="M403.210098,100.914591 C446.715337,140.70608 491.463582,175.523633 512.594698,225.262993 C533.104311,275.002354 530.618297,339.041781 501.407637,386.294174 C472.81848,434.168309 417.504677,465.877151 360.326363,483.907669 C303.14805,501.938188 242.862219,505.66864 185.062402,490.746832 C127.262585,475.825023 70.7057747,441.629213 37.1445906,390.646368 C4.20490993,339.663523 -6.98215142,272.515386 4.20490993,209.097701 C15.3919713,145.680016 48.3316519,85.9927831 97.4304212,47.4447785 C146.529191,8.89677391 210.544042,-9.13374437 263.993335,4.54457985 C317.442628,17.6011621 359.70486,61.7448448 403.210098,100.914591 Z" id="Path"></path>
        </g>
    </g>
</svg>