<?xml version="1.0" encoding="UTF-8"?>
<svg width="610px" height="500px" viewBox="0 0 610 500" version="1.1" xmlns="http://www.w3.org/2000/svg" xmlns:xlink="http://www.w3.org/1999/xlink">
    <title>Blobs/Home</title>
    <defs>
        <linearGradient x1="0%" y1="86.2078856%" x2="100%" y2="13.7921144%" id="linearGradient-1">
            <stop stop-color="#F87537" offset="0%"></stop>
            <stop stop-color="#FBA81F" offset="100%"></stop>
        </linearGradient>
    </defs>
    <g id="Blobs/Home" stroke="none" stroke-width="1" fill="none" fill-rule="evenodd">
        <g id="Group-2" fill="url(#linearGradient-1)" fill-rule="nonzero">
            <g id="blob-14">
                <path d="M516.671664,59.9934569 C565.086272,100.539095 593.520248,153.510009 604.27905,205.172999 C615.806337,257.489951 609.658451,308.49898 588.140847,352.968389 C566.623244,397.437798 529.735924,434.713627 484.395259,458.910217 C439.823081,483.76077 386.797558,495.532084 330.698092,498.801893 C274.598626,502.725665 215.425216,497.49397 160.862722,475.913227 C105.531741,454.332484 54.0431903,415.748732 24.8407285,365.393665 C-4.36173336,314.384637 -10.5096201,251.604294 20.9982993,207.788847 C51.7377328,164.627361 120.132972,140.430771 178.537896,102.500981 C236.94282,64.5711902 285.357427,13.5621619 343.762351,2.44480952 C401.398789,-8.67254282 469.025542,19.447819 516.671664,59.9934569 Z" id="Path"></path>
            </g>
        </g>
    </g>
</svg>